# xmcd
#
# Track frame offsets: 
#        150
#        17683
#        35706
#        55305
#        75668
#        94007
#        112131
#        134334
#        146464
#        167569
#
# Disc length: 2491 seconds
#
# Revision: 5
# Processed by: cddbd v1.5.2PL0 Copyright (c) Steve Scherf et al.
# Submitted via: ExactAudioCopyFreeDBPlugin 1.0
#
DISCID=8309b90a
DTITLE=Aretha Franklin - Sings The Great Diva Classics
DYEAR=2014
DGENRE=Soul
TTITLE0=At Last
TTITLE1=Rolling In The Deep [The Aretha Version]
TTITLE2=Midnight Train To Georgia
TTITLE3=I Will Survive [The Aretha Version]
TTITLE4=People
TTITLE5=No One
TTITLE6=I'm Every Woman - Respect
TTITLE7=Teach Me Tonight
TTITLE8=You Keep Me Hangin' On
TTITLE9=Nothing Compares 2 U
EXTD=Barcode: 0888750225122\nRelease year: 2014\nRelease country: AU\n
EXTD=Release label: RCA\nRelease catalog#: 88875022512
EXTT0=
EXTT1=
EXTT2=
EXTT3=
EXTT4=
EXTT5=
EXTT6=
EXTT7=
EXTT8=
EXTT9=
PLAYORDER=
